<svg xmlns="http://www.w3.org/2000/svg" version="1.1" xmlns:xlink="http://www.w3.org/1999/xlink" xmlns:svgjs="http://svgjs.dev/svgjs" width="1000" height="1000" viewBox="0 0 1000 1000"><rect width="1000" height="1000" fill="#ffffff"></rect><g transform="matrix(0.7,0,0,0.7,149.57575757575756,403.6327469125182)"><svg viewBox="0 0 396 109" data-background-color="#1f2d5a" preserveAspectRatio="xMidYMid meet" height="275" width="1000" xmlns="http://www.w3.org/2000/svg" xmlns:xlink="http://www.w3.org/1999/xlink"><g id="tight-bounds" transform="matrix(1,0,0,1,0.2400000000000091,0.06639265732732724)"><svg viewBox="0 0 395.52 108.86721180134911" height="108.86721180134911" width="395.52"><g><svg viewBox="0 0 666.0234741999836 183.32352" height="108.86721180134911" width="395.52"><g transform="matrix(1,0,0,1,0,4.536812238510038)"><svg viewBox="0 0 395.52 174.24989552297993" height="174.24989552297993" width="395.52"><g><svg viewBox="0 0 395.52 174.24989552297993" height="174.24989552297993" width="395.52"><g><svg viewBox="0 0 395.52 110.43949490835031" height="110.43949490835031" width="395.52"><g transform="matrix(1,0,0,1,0,0)"><svg width="395.52" viewBox="4.579999923706055 -34.20000076293945 124.09999084472656 34.65999984741211" height="110.43949490835031" data-palette-color="#b0e8a8"><path d="M4.58-33.27L13.2-33.27Q25.66-33.27 25.66-23.56L25.66-23.56Q25.66-18.53 22.21-15.8 18.76-13.07 12.36-13.07L12.36-13.07 8.44-13.07 8.44 0 4.58 0 4.58-33.27ZM12.77-29.9L8.44-29.9 8.44-16.41 11.93-16.41Q17.04-16.41 19.36-18.05L19.36-18.05Q21.66-19.72 21.66-23.22 21.66-26.72 19.49-28.31 17.32-29.9 12.77-29.9L12.77-29.9ZM34.15-6.85L34.15-6.85Q34.15-4.83 35.39-3.74 36.63-2.65 38.85-2.65L38.85-2.65Q42.41-2.65 44.41-4.59 46.41-6.52 46.41-10.01L46.41-10.01 46.41-12.26 42.64-12.11Q38.14-11.93 36.15-10.69 34.15-9.45 34.15-6.85ZM50.2-17.01L50.2 0 47.39 0 46.64-3.54 46.46-3.54Q44.59-1.21 42.74-0.38 40.9 0.46 38.12 0.46L38.12 0.46Q34.38 0.46 32.29-1.47 30.2-3.39 30.2-6.9L30.2-6.9Q30.2-14.43 42.26-14.81L42.26-14.81 46.51-14.94 46.51-16.48Q46.51-19.46 45.25-20.84 43.98-22.22 41.04-22.22 38.09-22.22 34.15-20.32L34.15-20.32 32.99-23.21Q36.93-25.35 41.43-25.35 45.93-25.35 48.06-23.36 50.2-21.36 50.2-17.01L50.2-17.01ZM69.33-25.38L69.33-25.38Q71.05-25.38 72.32-25.13L72.32-25.13 71.81-21.61Q70.32-21.94 69.08-21.94L69.08-21.94Q66.05-21.94 63.9-19.49 61.75-17.04 61.75-13.37L61.75-13.37 61.75 0 57.96 0 57.96-24.92 61.09-24.92 61.52-20.32 61.7-20.32Q63.09-22.78 65.05-24.08 67.01-25.38 69.33-25.38ZM96.3-8.85L96.3-8.85Q96.3-4.45 93.13-2 89.96 0.46 84.26 0.46 78.56 0.46 75.37-1.06L75.37-1.06 75.37-4.8Q79.87-2.93 84.62-2.93L84.62-2.93Q88.44-2.93 90.42-4.37 92.41-5.81 92.41-8.49L92.41-8.49Q92.41-10.21 91.71-11.3 91.02-12.39 89.38-13.35 87.73-14.31 84.45-15.47L84.45-15.47Q79.82-17.11 77.81-19.39 75.8-21.66 75.8-25.43 75.8-29.2 78.68-31.47L78.68-31.47Q81.62-33.75 86.46-33.75 91.3-33.75 95.47-31.93L95.47-31.93 94.25-28.54Q90.13-30.28 86.27-30.28L86.27-30.28Q83.18-30.28 81.45-28.96 79.72-27.63 79.72-25.3L79.72-25.3Q79.72-23.53 80.34-22.47 80.96-21.41 82.5-20.42L82.5-20.42Q84.09-19.46 87.15-18.4L87.15-18.4Q92.41-16.53 94.33-14.38L94.33-14.38Q96.3-12.26 96.3-8.85ZM106.06-29.82Q105.42-29.17 104.44-29.17 103.45-29.17 102.85-29.82 102.24-30.46 102.24-31.7 102.24-32.94 102.85-33.57 103.45-34.2 104.44-34.2 105.42-34.2 106.06-33.56 106.69-32.91 106.69-31.69 106.69-30.46 106.06-29.82ZM102.54-24.92L106.33-24.92 106.33 0 102.54 0 102.54-24.92ZM125.7-25.38L125.7-25.38Q127.41-25.38 128.68-25.13L128.68-25.13 128.17-21.61Q126.68-21.94 125.44-21.94L125.44-21.94Q122.41-21.94 120.26-19.49 118.11-17.04 118.11-13.37L118.11-13.37 118.11 0 114.32 0 114.32-24.92 117.45-24.92 117.88-20.32 118.06-20.32Q119.45-22.78 121.41-24.08 123.37-25.38 125.7-25.38Z" opacity="1" transform="matrix(1,0,0,1,0,0)" fill="#000000" class="undefined-text-0" data-fill-palette-color="primary" id="text-0"></path></svg></g></svg></g><g transform="matrix(1,0,0,1,163.310208,136.51160910833403)"><svg viewBox="0 0 232.209792 37.7382864146459" height="37.7382864146459" width="232.209792"><g transform="matrix(1,0,0,1,0,0)"><svg width="232.209792" viewBox="3.450000047683716 -39.75 311.3199768066406 50.599998474121094" height="37.7382864146459" data-palette-color="#fbfbfb"><path d="M12.4-34.55Q18.85-34.55 22.28-31.78 25.7-29 25.7-23.55L25.7-23.55Q25.7-17.85 22.28-14.98 18.85-12.1 12.85-12.1L12.85-12.1 9.95-12.1 9.95 0 3.45 0 3.45-34.55 12.4-34.55ZM12.45-16.95Q15.8-16.95 17.4-18.43 19-19.9 19-23.55L19-23.55Q19-26.8 17.4-28.3 15.8-29.8 12.45-29.8L12.45-29.8 9.95-29.8 9.95-16.95 12.45-16.95ZM48.1-6.65Q48.1-5.25 48.5-4.58 48.9-3.9 49.8-3.5L49.8-3.5 48.5 0.65Q46.35 0.4 45.02-0.45 43.7-1.3 43.05-3.1L43.05-3.1Q40.6 0.75 35.95 0.75L35.95 0.75Q32.4 0.75 30.3-1.5 28.2-3.75 28.2-7.4L28.2-7.4Q28.2-11.7 31.05-13.98 33.9-16.25 39.3-16.25L39.3-16.25 41.95-16.25 41.95-17.9Q41.95-20.4 40.95-21.45 39.95-22.5 37.7-22.5L37.7-22.5Q35.1-22.5 31.3-21.15L31.3-21.15 29.85-25.3Q34.4-27.2 38.7-27.2L38.7-27.2Q48.1-27.2 48.1-18.25L48.1-18.25 48.1-6.65ZM37.65-3.8Q40.4-3.8 41.95-7.05L41.95-7.05 41.95-12.55 39.95-12.55Q34.45-12.55 34.45-7.85L34.45-7.85Q34.45-5.85 35.3-4.83 36.15-3.8 37.65-3.8L37.65-3.8ZM67-27.15Q68.05-27.15 69.35-26.8L69.35-26.8 68.3-20.75Q67.25-21.05 66.2-21.05L66.2-21.05Q64.1-21.05 62.87-19.4 61.65-17.75 61-14.4L61-14.4 61 0 54.75 0 54.75-26.45 60.2-26.45 60.7-21.55Q61.65-24.3 63.25-25.73 64.85-27.15 67-27.15L67-27.15ZM80.49-27.2Q85.44-27.2 89.09-24.05L89.09-24.05 86.64-20.5Q83.69-22.6 80.79-22.6L80.79-22.6Q79.14-22.6 78.24-21.85 77.34-21.1 77.34-19.8L77.34-19.8Q77.34-18.85 77.77-18.25 78.19-17.65 79.24-17.07 80.29-16.5 82.39-15.8L82.39-15.8Q86.19-14.55 88.04-12.7 89.89-10.85 89.89-7.6L89.89-7.6Q89.89-3.7 86.97-1.48 84.04 0.75 79.59 0.75L79.59 0.75Q76.64 0.75 74.19-0.23 71.74-1.2 69.94-2.95L69.94-2.95 73.04-6.4Q76.14-3.9 79.39-3.9L79.39-3.9Q81.29-3.9 82.37-4.75 83.44-5.6 83.44-7.15L83.44-7.15Q83.44-8.3 83.02-9 82.59-9.7 81.49-10.3 80.39-10.9 78.14-11.6L78.14-11.6Q74.44-12.85 72.77-14.75 71.09-16.65 71.09-19.45L71.09-19.45Q71.09-21.65 72.24-23.43 73.39-25.2 75.54-26.2 77.69-27.2 80.49-27.2L80.49-27.2ZM94.34-26.45L100.59-26.45 100.59 0 94.34 0 94.34-26.45ZM97.49-39.75Q99.19-39.75 100.27-38.68 101.34-37.6 101.34-35.95L101.34-35.95Q101.34-34.3 100.27-33.23 99.19-32.15 97.49-32.15L97.49-32.15Q95.79-32.15 94.72-33.23 93.64-34.3 93.64-35.95L93.64-35.95Q93.64-37.6 94.72-38.68 95.79-39.75 97.49-39.75L97.49-39.75ZM120.34-27.2Q123.49-27.2 125.29-25.1 127.09-23 127.09-19.4L127.09-19.4 127.09 0 120.84 0 120.84-18.55Q120.84-20.65 120.16-21.53 119.49-22.4 118.19-22.4L118.19-22.4Q116.84-22.4 115.69-21.4 114.54-20.4 113.44-18.45L113.44-18.45 113.44 0 107.19 0 107.19-26.45 112.64-26.45 113.09-23Q114.54-25.05 116.31-26.13 118.09-27.2 120.34-27.2L120.34-27.2ZM152.89-30L154.49-25.1Q152.19-24.15 147.64-24.15L147.64-24.15Q149.89-23.15 150.99-21.48 152.09-19.8 152.09-17.4L152.09-17.4Q152.09-13.4 149.44-10.95 146.79-8.5 142.29-8.5L142.29-8.5Q140.64-8.5 139.49-8.9L139.49-8.9Q139.04-8.55 138.76-8.03 138.49-7.5 138.49-6.9L138.49-6.9Q138.49-6 139.11-5.48 139.74-4.95 141.34-4.95L141.34-4.95 144.69-4.95Q148.89-4.95 151.34-2.85 153.79-0.75 153.79 2.5L153.79 2.5Q153.79 6.35 150.69 8.6 147.59 10.85 141.74 10.85L141.74 10.85Q135.59 10.85 133.11 8.78 130.64 6.7 130.64 2.6L130.64 2.6 136.24 2.6Q136.24 4.7 137.39 5.6 138.54 6.5 141.79 6.5L141.79 6.5Q144.94 6.5 146.24 5.58 147.54 4.65 147.54 2.9L147.54 2.9Q147.54-0.35 143.39-0.35L143.39-0.35 140.59-0.35Q136.79-0.35 134.99-1.75 133.19-3.15 133.19-5.4L133.19-5.4Q133.19-6.8 133.94-8.05 134.69-9.3 136.04-10.2L136.04-10.2Q133.84-11.5 132.81-13.3 131.79-15.1 131.79-17.7L131.79-17.7Q131.79-22 134.56-24.58 137.34-27.15 141.89-27.15L141.89-27.15Q145.64-27.15 147.96-27.85 150.29-28.55 152.89-30L152.89-30ZM141.99-22.95Q140.04-22.95 139.01-21.65 137.99-20.35 137.99-17.8L137.99-17.8Q137.99-15.3 139.04-13.93 140.09-12.55 141.99-12.55L141.99-12.55Q144.04-12.55 145.04-13.83 146.04-15.1 146.04-17.85L146.04-17.85Q146.04-22.95 141.99-22.95L141.99-22.95ZM178.23-35.3Q181.53-35.3 184.01-34.25 186.48-33.2 188.58-31.05L188.58-31.05 185.48-27.5Q183.83-28.95 182.18-29.65 180.53-30.35 178.63-30.35L178.63-30.35Q176.53-30.35 175.26-29.25 173.98-28.15 173.98-26.2L173.98-26.2Q173.98-24.9 174.51-24 175.03-23.1 176.38-22.33 177.73-21.55 180.28-20.65L180.28-20.65Q184.93-18.95 187.21-16.6 189.48-14.25 189.48-9.85L189.48-9.85Q189.48-6.8 188.03-4.4 186.58-2 183.86-0.63 181.13 0.75 177.48 0.75L177.48 0.75Q170.63 0.75 166.03-3.95L166.03-3.95 169.33-7.6Q171.23-5.95 173.11-5.1 174.98-4.25 177.23-4.25L177.23-4.25Q179.78-4.25 181.26-5.65 182.73-7.05 182.73-9.5L182.73-9.5Q182.73-11.7 181.48-12.98 180.23-14.25 176.73-15.45L176.73-15.45Q171.73-17.2 169.53-19.6 167.33-22 167.33-25.75L167.33-25.75Q167.33-28.5 168.73-30.68 170.13-32.85 172.63-34.08 175.13-35.3 178.23-35.3L178.23-35.3ZM214.23-13.85Q214.23-13.4 214.08-11.3L214.08-11.3 199.13-11.3Q199.43-7.3 200.83-5.65 202.23-4 204.73-4L204.73-4Q206.33-4 207.73-4.55 209.13-5.1 210.73-6.25L210.73-6.25 213.33-2.7Q209.38 0.75 204.28 0.75L204.28 0.75Q198.73 0.75 195.73-2.9 192.73-6.55 192.73-13.05L192.73-13.05Q192.73-19.45 195.6-23.33 198.48-27.2 203.63-27.2L203.63-27.2Q208.63-27.2 211.43-23.75 214.23-20.3 214.23-13.85L214.23-13.85ZM208.08-15.35L208.08-15.65Q208.08-19.25 207.03-21.03 205.98-22.8 203.68-22.8L203.68-22.8Q201.58-22.8 200.45-21.08 199.33-19.35 199.13-15.35L199.13-15.35 208.08-15.35ZM231.43-27.15Q232.48-27.15 233.78-26.8L233.78-26.8 232.73-20.75Q231.68-21.05 230.63-21.05L230.63-21.05Q228.53-21.05 227.3-19.4 226.08-17.75 225.43-14.4L225.43-14.4 225.43 0 219.18 0 219.18-26.45 224.63-26.45 225.13-21.55Q226.08-24.3 227.68-25.73 229.28-27.15 231.43-27.15L231.43-27.15ZM250.52-26.45L256.77-26.45 249.12 0 241.72 0 233.92-26.45 240.47-26.45 245.47-5 250.52-26.45ZM260.17-26.45L266.42-26.45 266.42 0 260.17 0 260.17-26.45ZM263.32-39.75Q265.02-39.75 266.1-38.68 267.17-37.6 267.17-35.95L267.17-35.95Q267.17-34.3 266.1-33.23 265.02-32.15 263.32-32.15L263.32-32.15Q261.62-32.15 260.55-33.23 259.47-34.3 259.47-35.95L259.47-35.95Q259.47-37.6 260.55-38.68 261.62-39.75 263.32-39.75L263.32-39.75ZM283.02-27.2Q285.37-27.2 287.27-26.45 289.17-25.7 290.87-24.15L290.87-24.15 288.12-20.5Q285.87-22.3 283.42-22.3L283.42-22.3Q280.87-22.3 279.54-20.13 278.22-17.95 278.22-13.1L278.22-13.1Q278.22-8.3 279.54-6.3 280.87-4.3 283.42-4.3L283.42-4.3Q284.67-4.3 285.72-4.73 286.77-5.15 288.07-6.05L288.07-6.05 290.87-2.3Q287.42 0.75 283.12 0.75L283.12 0.75Q277.72 0.75 274.67-2.83 271.62-6.4 271.62-13L271.62-13Q271.62-17.3 273.02-20.53 274.42-23.75 276.99-25.48 279.57-27.2 283.02-27.2L283.02-27.2ZM314.77-13.85Q314.77-13.4 314.62-11.3L314.62-11.3 299.67-11.3Q299.97-7.3 301.37-5.65 302.77-4 305.27-4L305.27-4Q306.87-4 308.27-4.55 309.67-5.1 311.27-6.25L311.27-6.25 313.87-2.7Q309.92 0.75 304.82 0.75L304.82 0.75Q299.27 0.75 296.27-2.9 293.27-6.55 293.27-13.05L293.27-13.05Q293.27-19.45 296.14-23.33 299.02-27.2 304.17-27.2L304.17-27.2Q309.17-27.2 311.97-23.75 314.77-20.3 314.77-13.85L314.77-13.85ZM308.62-15.35L308.62-15.65Q308.62-19.25 307.57-21.03 306.52-22.8 304.22-22.8L304.22-22.8Q302.12-22.8 300.99-21.08 299.87-19.35 299.67-15.35L299.67-15.35 308.62-15.35Z" opacity="1" transform="matrix(1,0,0,1,0,0)" fill="#000000" class="undefined-text-1" data-fill-palette-color="secondary" id="text-1"></path></svg></g></svg></g></svg></g></svg></g><g transform="matrix(1,0,0,1,421.5921141999837,0)"><svg viewBox="0 0 244.43135999999998 183.32352" height="183.32352" width="244.43135999999998"><g><svg xmlns="http://www.w3.org/2000/svg" xmlns:xlink="http://www.w3.org/1999/xlink" version="1.1" x="0" y="0" viewBox="2 13.999998092651367 96 72" enable-background="new 0 0 100 100" xml:space="preserve" height="183.32352" width="244.43135999999998" class="icon-icon-0" data-fill-palette-color="accent" id="icon-0"><path d="M65.9 62.4H7.6c-0.5 0-1-0.4-1-1V19.7c0-0.5 0.4-1 1-1H74c0.5 0 1 0.4 1 1v16.9c0.4 0 0.9-0.1 1.3-0.1h0.9 0.9c0.5 0 1 0 1.5 0.1v-17c0-3.1-2.5-5.6-5.6-5.6H7.6c-3.1 0-5.6 2.5-5.6 5.6v41.7c0 0 0 0 0 0.1V69c0 0 0 0.1 0 0.1v0.4c0 0 0 0.1 0 0.1v0.1h0c0.1 2.7 2.3 4.8 5 4.8h25.2c0 1.1-0.7 6.2-8.2 7.1h0.2c-1.2 0-2.2 1-2.2 2.2 0 1.2 1 2.2 2.2 2.2H52v-5.9c0-0.2 0-0.4 0-0.6-2.3-1.8-2.5-4.2-2.6-5h4.6c0.3-0.4 0.6-0.7 1-1 4-3.3 8.2-5.8 10.8-7.2V62.4zM40.8 71.7c-1.5 0-2.8-1.2-2.8-2.8 0-1.5 1.2-2.8 2.8-2.8s2.8 1.2 2.8 2.8C43.6 70.4 42.3 71.7 40.8 71.7zM96.5 76.9c1 0.8 1.5 2 1.5 3.2v5.9H77.2 56.4v-5.9c0-1.2 0.6-2.4 1.5-3.2 5.3-4.4 11-7.2 12.2-7.8 0.1-0.1 0.2-0.2 0.2-0.3v-8.3c-1-0.7-1.7-1.9-1.7-3.2v-8.6c0-4.3 3.5-7.7 7.7-7.7h0.9 0.9c4.3 0 7.7 3.5 7.7 7.7v8.6c0 1.3-0.7 2.5-1.7 3.2v8.3c0 0.1 0.1 0.3 0.2 0.3C85.5 69.6 91.2 72.5 96.5 76.9z" fill="#000000" data-fill-palette-color="accent"></path></svg></g></svg></g></svg></g><defs></defs></svg><rect width="395.52" height="108.86721180134911" fill="none" stroke="none" visibility="hidden"></rect></g></svg></g></svg>