<svg id="svg" version="1.1" xmlns="http://www.w3.org/2000/svg" xmlns:xlink="http://www.w3.org/1999/xlink" width="400" height="114.75061903077467" viewBox="0, 0, 400,114.75061903077467"><g id="svgg"><path id="path0" d="M366.667 43.281 C 358.153 44.784,353.681 52.801,357.293 60.083 C 359.132 63.791,360.609 64.608,369.830 67.018 C 377.612 69.052,378.743 69.843,378.744 73.250 C 378.745 76.580,376.134 78.448,371.234 78.623 C 365.689 78.821,362.250 77.028,361.157 73.368 C 361.015 72.894,360.868 72.681,360.722 72.738 C 360.600 72.785,359.431 73.045,358.125 73.317 C 354.277 74.118,354.000 74.187,354.000 74.343 C 354.000 74.670,354.826 76.659,355.349 77.593 C 359.377 84.779,373.545 86.895,381.502 81.498 C 386.778 77.919,388.078 70.611,384.420 65.099 C 382.778 62.625,380.475 61.542,372.667 59.569 C 365.943 57.870,364.447 57.099,363.740 54.969 C 361.587 48.489,374.347 46.175,377.584 52.458 C 377.832 52.940,378.056 53.333,378.082 53.333 C 378.256 53.333,384.744 51.645,384.805 51.584 C 384.934 51.455,384.319 49.967,383.727 48.976 C 381.103 44.588,373.548 42.066,366.667 43.281 M19.000 43.713 C 19.000 43.927,20.086 47.950,23.170 59.167 C 24.015 62.237,24.876 65.387,25.083 66.167 C 25.290 66.946,26.004 69.571,26.668 72.000 C 27.333 74.429,28.337 78.104,28.901 80.167 L 29.925 83.917 33.624 83.962 L 37.322 84.006 37.563 83.128 C 37.695 82.645,38.406 79.775,39.144 76.750 C 39.881 73.725,41.165 68.475,41.997 65.083 C 42.829 61.692,43.751 57.923,44.046 56.709 C 44.342 55.496,44.631 54.502,44.689 54.501 C 44.748 54.501,45.034 55.381,45.326 56.458 C 45.617 57.535,46.000 58.942,46.176 59.583 C 46.825 61.948,48.051 66.467,48.505 68.167 C 48.762 69.129,49.176 70.667,49.425 71.583 C 50.359 75.016,50.319 74.868,52.316 82.250 L 52.767 83.917 56.537 83.961 L 60.308 84.006 60.582 83.045 C 60.733 82.516,60.925 81.821,61.010 81.500 C 61.095 81.179,61.498 79.679,61.906 78.167 C 62.313 76.654,62.833 74.704,63.062 73.833 C 63.290 72.962,63.750 71.237,64.083 70.000 C 64.417 68.762,64.827 67.225,64.994 66.583 C 65.160 65.942,65.724 63.842,66.245 61.917 C 67.285 58.080,68.138 54.899,68.748 52.583 C 68.965 51.758,69.417 50.071,69.751 48.833 C 70.085 47.596,70.504 46.021,70.682 45.333 C 70.860 44.646,71.048 43.950,71.099 43.788 C 71.186 43.511,70.989 43.496,67.975 43.538 L 64.759 43.583 64.399 45.000 C 64.201 45.779,63.570 48.217,62.998 50.417 C 62.425 52.617,61.597 55.804,61.158 57.500 C 60.718 59.196,60.161 61.333,59.919 62.250 C 59.180 65.058,58.507 67.644,57.903 70.000 C 57.021 73.438,57.137 73.330,56.589 71.222 C 56.378 70.412,55.738 68.063,55.167 66.000 C 54.595 63.938,53.958 61.612,53.751 60.833 C 53.299 59.134,50.981 50.662,50.423 48.667 C 50.204 47.887,49.822 46.500,49.572 45.583 C 49.323 44.667,49.045 43.823,48.956 43.708 C 48.754 43.451,41.912 43.405,41.754 43.660 C 41.699 43.749,41.063 46.205,40.340 49.119 C 39.618 52.033,37.996 58.568,36.738 63.643 C 35.362 69.190,34.398 72.776,34.320 72.636 C 34.248 72.509,34.081 71.957,33.948 71.410 C 33.814 70.864,33.201 68.542,32.586 66.250 C 31.970 63.958,31.332 61.558,31.169 60.917 C 31.006 60.275,30.370 57.875,29.756 55.583 C 29.142 53.292,28.462 50.742,28.245 49.917 C 28.028 49.092,27.660 47.704,27.428 46.833 C 27.195 45.962,26.905 44.875,26.783 44.417 L 26.562 43.583 22.781 43.539 C 19.747 43.503,19.000 43.537,19.000 43.713 M76.333 63.750 L 76.333 84.000 79.917 84.000 L 83.500 84.000 83.500 63.750 L 83.500 43.500 79.917 43.500 L 76.333 43.500 76.333 63.750 M92.410 43.708 C 92.367 43.823,92.350 52.917,92.374 63.917 L 92.417 83.917 104.792 83.959 L 117.167 84.002 117.167 80.668 L 117.167 77.333 108.583 77.333 L 100.000 77.333 100.000 60.417 L 100.000 43.500 96.245 43.500 C 93.394 43.500,92.470 43.550,92.410 43.708 M122.448 43.625 C 122.409 43.694,122.415 52.815,122.462 63.894 L 122.547 84.038 130.315 83.954 C 140.263 83.846,142.137 83.568,145.833 81.649 C 159.205 74.706,158.547 51.404,144.801 45.095 C 143.344 44.426,141.297 43.901,139.250 43.671 C 137.527 43.478,122.556 43.436,122.448 43.625 M162.333 63.765 L 162.333 84.031 172.292 83.955 C 183.606 83.869,184.236 83.806,186.815 82.509 C 195.060 78.364,193.859 65.348,185.042 63.292 C 183.982 63.045,183.956 62.949,184.875 62.674 C 193.600 60.065,192.934 46.632,183.961 44.250 C 181.625 43.630,179.335 43.503,170.458 43.501 L 162.333 43.500 162.333 63.765 M199.167 63.750 L 199.167 84.002 212.208 83.959 L 225.250 83.917 225.295 80.792 L 225.341 77.667 215.837 77.667 L 206.333 77.667 206.333 72.000 L 206.333 66.333 213.833 66.333 L 221.333 66.333 221.333 63.417 L 221.333 60.500 213.831 60.500 L 206.329 60.500 206.373 55.042 L 206.417 49.583 215.712 49.540 L 225.008 49.497 224.962 46.540 L 224.917 43.583 212.042 43.541 L 199.167 43.498 199.167 63.750 M231.667 63.750 L 231.667 84.000 235.250 84.000 L 238.833 84.000 238.833 75.667 L 238.833 67.333 243.982 67.333 C 248.730 67.333,249.140 67.356,249.248 67.625 C 249.402 68.007,250.834 71.783,252.676 76.667 C 253.488 78.821,254.438 81.333,254.786 82.250 L 255.420 83.917 259.210 83.961 C 261.294 83.986,263.000 83.965,263.000 83.915 C 263.000 83.798,261.417 79.699,261.089 78.966 C 260.809 78.339,256.000 66.186,256.000 66.104 C 256.000 66.075,256.319 65.911,256.708 65.741 C 263.856 62.612,265.614 52.742,260.019 47.147 C 256.808 43.937,254.496 43.504,240.542 43.501 L 231.667 43.500 231.667 63.750 M270.577 43.708 C 270.533 43.823,270.517 52.917,270.540 63.917 L 270.583 83.917 274.167 83.917 L 277.750 83.917 277.793 75.625 L 277.836 67.333 282.960 67.334 L 288.083 67.334 288.783 69.209 C 289.168 70.240,290.393 73.483,291.505 76.417 C 292.618 79.350,293.664 82.125,293.830 82.583 C 293.996 83.042,294.186 83.548,294.251 83.708 C 294.376 84.016,301.717 84.176,301.882 83.875 C 301.920 83.806,301.324 82.175,300.557 80.250 C 295.922 68.614,294.954 66.098,295.094 66.050 C 305.240 62.523,304.307 46.922,293.790 44.256 C 290.876 43.518,270.830 43.045,270.577 43.708 M309.500 63.750 L 309.500 84.000 313.083 84.000 L 316.667 84.000 316.667 63.750 L 316.667 43.500 313.083 43.500 L 309.500 43.500 309.500 63.750 M325.708 63.707 L 325.750 83.917 338.792 83.959 L 351.833 84.002 351.833 80.834 L 351.833 77.667 342.331 77.667 L 332.829 77.667 332.873 72.042 L 332.917 66.417 340.458 66.373 L 348.000 66.330 348.000 63.417 L 348.000 60.503 340.458 60.460 L 332.917 60.417 332.917 55.000 L 332.917 49.583 342.296 49.540 L 351.674 49.497 351.629 46.540 L 351.583 43.583 338.624 43.541 L 325.665 43.498 325.708 63.707 M139.450 49.664 C 148.235 52.099,150.766 68.873,143.303 75.207 C 140.593 77.508,139.365 77.873,134.042 77.960 L 129.833 78.029 129.833 63.681 L 129.833 49.333 134.045 49.333 C 137.733 49.333,138.405 49.374,139.450 49.664 M180.439 49.732 C 185.358 51.494,185.060 58.732,180.007 60.233 C 179.268 60.452,178.213 60.500,174.136 60.500 L 169.167 60.500 169.167 54.908 L 169.167 49.316 174.375 49.370 C 178.921 49.418,179.692 49.464,180.439 49.732 M251.043 49.645 C 256.585 50.972,257.498 58.311,252.417 60.685 C 250.921 61.383,249.749 61.497,244.042 61.499 L 238.833 61.500 238.833 55.417 L 238.833 49.333 244.292 49.335 C 249.031 49.336,249.920 49.377,251.043 49.645 M289.691 49.574 C 295.383 50.780,296.575 58.078,291.502 60.666 C 290.153 61.354,288.674 61.500,283.069 61.500 L 277.833 61.500 277.833 55.417 L 277.833 49.333 283.208 49.336 C 287.186 49.338,288.871 49.400,289.691 49.574 M181.870 66.964 C 186.120 69.058,186.116 75.125,181.863 77.205 L 180.750 77.750 174.958 77.800 L 169.167 77.849 169.167 72.083 L 169.167 66.317 174.962 66.367 L 180.758 66.417 181.870 66.964 " stroke="none" fill="#fbfafb" fill-rule="evenodd"></path><path id="path1" d="M162.500 5.781 C 159.530 6.985,157.958 8.521,157.170 10.989 C 156.568 12.874,156.874 16.011,157.786 17.292 C 157.949 17.522,158.160 17.840,158.254 17.999 C 158.403 18.250,159.413 19.248,160.036 19.758 C 160.986 20.536,163.018 21.167,164.578 21.167 C 172.911 21.167,175.386 9.924,167.853 6.287 C 166.759 5.758,163.350 5.436,162.500 5.781 M19.083 22.778 C 16.331 23.985,15.076 24.565,15.000 24.666 C 14.954 24.726,14.523 24.988,14.042 25.248 C 13.560 25.507,13.167 25.778,13.167 25.849 C 13.167 25.920,12.998 26.031,12.792 26.096 C 12.585 26.161,12.267 26.350,12.083 26.515 C 11.900 26.680,11.112 27.336,10.333 27.971 C 9.041 29.026,7.289 30.816,6.309 32.083 C 6.097 32.358,5.865 32.608,5.795 32.639 C 5.724 32.669,5.667 32.789,5.667 32.905 C 5.667 33.020,5.518 33.250,5.336 33.414 C 5.154 33.579,4.764 34.134,4.469 34.648 C 4.174 35.163,3.803 35.808,3.644 36.083 C 2.428 38.187,1.404 40.813,0.627 43.822 L 0.086 45.917 0.085 50.583 C 0.083 56.199,0.726 59.482,2.533 63.083 C 3.784 65.578,4.026 66.013,4.745 67.062 C 5.115 67.601,5.493 68.170,5.585 68.327 C 5.732 68.577,6.548 69.554,8.000 71.223 C 8.618 71.933,11.599 74.500,11.805 74.500 C 11.903 74.500,12.043 74.600,12.117 74.723 C 12.256 74.957,13.889 76.062,14.750 76.507 C 15.025 76.648,15.475 76.886,15.750 77.034 C 16.390 77.379,18.276 78.254,18.885 78.488 C 19.338 78.663,19.349 78.695,19.218 79.459 C 18.610 83.022,19.715 88.645,21.380 90.458 C 21.570 90.665,21.668 90.833,21.598 90.833 C 21.085 90.833,24.590 94.272,26.083 95.235 C 29.020 97.129,33.588 98.105,36.748 97.516 C 37.876 97.306,37.968 97.365,38.685 98.767 C 39.868 101.081,45.515 107.167,46.478 107.167 C 46.573 107.167,46.710 107.270,46.783 107.396 C 46.857 107.522,47.329 107.875,47.833 108.181 C 48.337 108.487,48.775 108.796,48.806 108.868 C 48.836 108.941,49.000 109.000,49.171 109.000 C 49.341 109.000,49.531 109.083,49.594 109.184 C 49.923 109.716,54.604 111.537,57.500 112.259 C 60.183 112.928,66.776 113.069,69.333 112.513 C 72.007 111.932,72.869 111.707,74.167 111.250 C 75.961 110.619,78.667 109.342,78.667 109.125 C 78.667 109.056,78.770 109.000,78.896 109.000 C 79.149 109.000,82.051 107.110,82.606 106.583 C 82.800 106.400,83.180 106.083,83.451 105.878 C 83.967 105.490,86.180 103.277,86.913 102.417 C 87.148 102.142,87.461 101.788,87.610 101.630 C 87.759 101.473,87.964 101.201,88.065 101.027 C 88.167 100.854,88.592 100.195,89.010 99.564 C 90.044 98.002,90.833 96.675,90.833 96.498 C 90.833 96.417,91.021 95.998,91.250 95.567 C 91.798 94.536,91.816 94.583,90.669 94.014 C 87.081 92.234,83.810 88.345,82.842 84.708 L 82.654 84.000 79.410 84.000 L 76.167 84.000 76.167 76.261 C 76.167 69.033,76.147 68.517,75.875 68.440 C 75.715 68.395,74.908 68.198,74.083 68.002 C 72.013 67.509,69.759 66.648,67.543 65.503 L 65.670 64.535 65.492 65.226 C 65.394 65.606,65.133 66.592,64.912 67.417 C 64.691 68.242,64.281 69.779,64.000 70.833 C 63.719 71.887,63.306 73.425,63.081 74.250 C 62.857 75.075,62.445 76.612,62.167 77.667 C 61.888 78.721,61.476 80.258,61.250 81.083 C 61.025 81.908,60.761 82.902,60.664 83.292 L 60.487 84.000 56.593 84.000 L 52.699 84.000 52.365 82.875 C 52.182 82.256,51.757 80.700,51.421 79.417 C 51.085 78.133,50.662 76.573,50.481 75.949 C 50.300 75.326,50.014 74.276,49.846 73.616 C 49.677 72.956,49.190 71.142,48.763 69.583 C 48.336 68.025,47.763 65.925,47.489 64.917 C 47.214 63.908,46.775 62.296,46.512 61.333 C 46.248 60.371,45.878 58.983,45.688 58.250 C 44.872 55.102,44.778 54.807,44.659 55.026 C 44.543 55.240,43.297 60.214,42.391 64.083 C 42.154 65.092,41.787 66.592,41.574 67.417 C 41.361 68.242,40.731 70.792,40.173 73.083 C 39.212 77.034,38.989 77.931,37.908 82.211 L 37.455 84.006 33.609 83.961 L 29.763 83.917 29.296 82.167 C 28.683 79.871,27.950 77.169,27.352 75.000 C 26.710 72.670,26.049 70.232,25.590 68.500 C 25.225 67.123,24.697 65.179,23.664 61.417 C 22.624 57.624,22.284 56.377,21.913 55.000 C 21.382 53.026,20.486 49.742,19.593 46.500 C 19.176 44.987,18.835 43.694,18.834 43.625 C 18.834 43.556,20.593 43.500,22.744 43.500 L 26.654 43.500 26.837 44.208 C 26.937 44.598,27.233 45.704,27.494 46.667 C 27.754 47.629,28.004 48.567,28.048 48.750 C 28.092 48.933,28.669 51.108,29.329 53.583 C 30.524 58.062,30.880 59.406,31.483 61.708 C 32.433 65.334,33.894 70.699,34.144 71.478 L 34.430 72.374 35.233 69.145 C 35.674 67.369,36.177 65.392,36.350 64.750 C 36.523 64.108,37.567 59.908,38.671 55.417 C 39.774 50.925,40.887 46.425,41.144 45.417 L 41.613 43.583 45.368 43.539 L 49.124 43.494 49.375 44.455 C 49.512 44.984,50.165 47.367,50.825 49.750 C 51.484 52.133,52.158 54.571,52.321 55.167 C 52.485 55.762,52.889 57.225,53.218 58.417 C 53.548 59.608,54.200 61.971,54.667 63.667 C 55.133 65.362,55.784 67.725,56.112 68.917 C 56.440 70.108,56.801 71.458,56.915 71.917 L 57.122 72.750 57.248 72.083 C 57.317 71.717,57.583 70.629,57.839 69.667 C 58.095 68.704,58.539 67.017,58.825 65.917 C 59.112 64.817,59.526 63.242,59.746 62.417 C 59.967 61.592,60.169 60.767,60.196 60.583 C 60.228 60.365,59.795 59.721,58.950 58.727 C 53.043 51.782,50.529 42.762,52.081 34.083 C 52.608 31.135,52.748 31.635,50.862 29.750 C 48.779 27.668,48.516 27.440,47.038 26.431 L 45.838 25.611 44.877 26.523 C 37.896 33.146,25.390 31.279,21.157 22.981 C 20.756 22.196,20.474 22.168,19.083 22.778 M246.000 24.670 C 246.000 24.732,245.194 24.829,244.208 24.887 C 233.461 25.514,224.197 31.663,219.307 41.417 L 218.304 43.417 221.735 43.462 L 225.167 43.507 225.167 46.584 L 225.167 49.661 220.877 49.706 L 216.587 49.750 216.450 50.583 C 216.079 52.844,216.375 59.682,216.871 60.292 C 216.992 60.440,217.689 60.500,219.274 60.500 L 221.508 60.500 221.462 63.458 L 221.417 66.417 220.125 66.465 C 219.415 66.492,218.833 66.561,218.833 66.618 C 218.833 67.311,221.538 71.605,223.291 73.694 C 225.267 76.049,230.473 80.333,231.359 80.333 C 231.437 80.333,231.500 72.042,231.500 61.908 L 231.500 43.482 242.125 43.545 C 253.839 43.615,254.001 43.628,256.679 44.755 C 265.183 48.335,265.744 61.297,257.572 65.417 C 256.845 65.783,256.220 66.100,256.184 66.121 C 256.148 66.142,256.574 67.304,257.130 68.704 C 257.687 70.105,258.866 73.087,259.752 75.333 C 260.638 77.579,261.425 79.482,261.501 79.561 C 261.644 79.711,263.667 78.391,264.737 77.450 L 265.343 76.917 264.999 76.024 C 262.953 70.720,264.296 64.434,268.407 60.075 C 269.712 58.691,269.744 59.160,268.204 57.127 C 262.918 50.152,260.991 41.398,262.854 32.831 C 263.417 30.243,263.418 30.452,262.840 30.113 C 262.556 29.945,262.184 29.659,262.014 29.477 C 261.845 29.295,261.453 29.002,261.145 28.826 C 260.318 28.355,257.558 27.000,257.426 27.000 C 257.363 27.000,256.902 26.813,256.401 26.583 C 255.900 26.354,255.399 26.166,255.287 26.164 C 255.175 26.163,254.486 25.976,253.755 25.749 C 253.025 25.522,251.450 25.221,250.255 25.079 C 249.061 24.937,247.615 24.762,247.042 24.690 C 246.469 24.618,246.000 24.609,246.000 24.670 M152.500 28.764 C 151.262 28.888,149.688 29.147,149.000 29.339 C 148.313 29.532,147.487 29.750,147.167 29.823 C 145.587 30.186,140.698 32.476,139.820 33.264 C 139.675 33.394,139.505 33.500,139.440 33.500 C 139.376 33.500,138.820 33.889,138.204 34.364 C 136.306 35.828,135.833 36.219,135.833 36.322 C 135.833 36.377,135.387 36.891,134.841 37.465 C 133.073 39.322,130.333 42.933,130.333 43.404 C 130.333 43.457,132.340 43.503,134.792 43.507 C 137.244 43.511,139.587 43.586,140.000 43.674 C 140.412 43.762,141.883 43.905,143.269 43.991 C 148.487 44.317,152.527 45.918,155.872 48.985 L 156.828 49.861 158.205 48.753 C 158.963 48.144,160.165 47.265,160.875 46.801 L 162.167 45.957 162.167 44.728 L 162.167 43.500 164.958 43.492 C 167.750 43.484,170.604 43.014,170.573 42.567 C 170.567 42.484,170.258 41.779,169.886 41.000 C 168.619 38.350,168.070 34.684,168.544 32.040 C 168.667 31.352,168.654 31.323,168.127 31.091 C 163.158 28.911,158.280 28.184,152.500 28.764 M239.000 55.417 L 239.000 61.333 244.458 61.331 C 250.252 61.328,251.242 61.227,252.691 60.488 C 256.327 58.632,256.630 52.940,253.212 50.676 C 251.567 49.587,250.936 49.500,244.649 49.500 L 239.000 49.500 239.000 55.417 M120.980 53.292 C 115.450 59.100,112.444 67.258,112.921 75.167 C 113.059 77.454,112.916 77.328,115.375 77.331 L 117.333 77.333 117.333 80.667 L 117.333 84.000 114.943 84.000 L 112.553 84.000 112.343 84.708 C 110.917 89.528,106.747 93.719,102.108 94.997 L 101.299 95.220 101.404 95.901 C 101.580 97.057,102.171 99.038,102.625 100.000 C 102.864 100.504,103.074 100.994,103.092 101.088 C 103.152 101.390,104.686 103.500,104.846 103.500 C 104.931 103.500,105.000 103.595,105.000 103.712 C 105.000 104.281,108.019 106.634,110.006 107.615 C 113.807 109.490,119.526 109.501,123.417 107.640 L 124.417 107.162 124.424 105.289 C 124.457 96.541,136.681 94.411,139.322 102.693 L 139.516 103.303 141.078 103.420 C 143.388 103.594,145.497 103.395,149.250 102.650 C 150.895 102.323,153.729 101.350,155.500 100.504 C 156.188 100.175,158.070 99.125,158.566 98.793 C 160.144 97.737,161.009 97.120,161.086 96.996 C 161.132 96.921,160.565 96.432,159.825 95.911 C 155.847 93.107,152.299 88.871,150.150 84.359 C 149.614 83.233,149.434 82.990,149.202 83.082 C 147.340 83.819,144.235 84.236,141.599 84.101 C 140.399 84.040,135.555 83.973,130.835 83.953 L 122.253 83.917 122.311 67.958 C 122.343 59.181,122.333 52.000,122.290 52.000 C 122.246 52.000,121.657 52.581,120.980 53.292 M316.833 72.148 L 316.833 83.990 314.836 84.037 L 312.839 84.083 313.949 85.583 C 314.559 86.408,315.822 87.856,316.757 88.799 L 318.456 90.516 317.795 90.853 C 314.967 92.296,313.285 96.059,314.072 99.185 C 314.225 99.790,314.330 100.353,314.308 100.435 C 314.213 100.772,315.111 102.143,316.015 103.041 C 318.209 105.222,321.897 105.990,324.368 104.781 C 324.871 104.535,325.356 104.333,325.446 104.333 C 325.535 104.333,325.785 104.146,326.000 103.917 C 326.215 103.688,326.456 103.500,326.534 103.500 C 326.723 103.500,327.595 102.499,328.194 101.595 C 328.784 100.703,329.324 98.737,329.329 97.458 C 329.332 96.931,329.366 96.500,329.406 96.500 C 329.446 96.500,329.662 96.570,329.886 96.655 C 335.651 98.847,347.499 97.249,352.960 93.543 C 353.265 93.336,353.545 93.167,353.583 93.167 C 353.674 93.167,355.894 91.627,356.000 91.491 C 356.046 91.432,356.252 91.294,356.458 91.186 C 357.022 90.889,356.913 90.547,356.125 90.147 C 354.162 89.149,350.733 86.559,349.007 84.770 L 348.264 84.000 336.882 84.000 L 325.500 84.000 325.500 75.074 L 325.500 66.148 324.718 65.802 C 322.819 64.962,320.131 63.131,317.542 60.912 L 316.833 60.306 316.833 72.148 M308.788 63.557 C 307.861 64.316,307.802 69.313,308.670 73.667 C 309.277 76.711,309.304 76.545,309.319 69.708 C 309.327 66.110,309.315 63.169,309.292 63.173 C 309.269 63.176,309.042 63.349,308.788 63.557 M239.040 75.373 L 239.083 83.417 240.667 83.724 C 243.058 84.187,248.776 84.181,251.167 83.713 C 252.902 83.373,254.833 82.866,254.833 82.749 C 254.833 82.716,254.342 81.390,253.741 79.803 C 251.548 74.007,249.931 69.723,249.506 68.583 L 249.071 67.417 244.034 67.373 L 238.997 67.328 239.040 75.373 M85.708 68.560 L 83.667 68.900 83.668 71.325 C 83.669 73.618,83.683 73.723,83.927 73.254 C 84.744 71.688,86.091 69.981,87.412 68.837 C 87.838 68.469,88.089 68.178,87.968 68.193 C 87.848 68.207,86.831 68.372,85.708 68.560 M333.000 73.073 L 333.000 77.667 338.417 77.667 C 341.396 77.667,343.833 77.640,343.833 77.607 C 343.833 77.574,343.543 76.917,343.188 76.148 C 342.394 74.429,341.623 72.047,341.250 70.164 L 340.970 68.745 338.193 68.748 C 336.666 68.749,334.873 68.689,334.208 68.615 L 333.000 68.480 333.000 73.073 M272.843 84.424 C 272.069 84.545,270.815 84.884,270.057 85.177 L 268.678 85.710 269.069 86.397 C 270.171 88.331,270.143 91.330,269.003 93.469 C 267.553 96.189,264.301 97.936,261.369 97.570 C 260.232 97.428,260.173 97.512,260.169 99.265 C 260.164 101.778,260.709 104.344,261.617 106.083 C 261.760 106.358,262.054 106.921,262.269 107.333 C 263.030 108.792,264.583 110.458,266.840 112.235 C 267.480 112.738,269.222 113.571,270.734 114.095 L 272.385 114.667 275.593 114.667 C 278.612 114.667,278.874 114.641,280.026 114.238 C 280.699 114.002,281.400 113.764,281.583 113.709 C 281.767 113.654,282.142 113.473,282.417 113.307 C 282.692 113.140,283.098 112.925,283.320 112.829 C 284.634 112.257,287.623 109.463,288.449 108.032 C 288.697 107.602,288.952 107.212,289.014 107.167 C 289.220 107.016,290.185 104.764,290.336 104.083 C 290.699 102.448,290.911 101.741,291.074 101.628 C 291.194 101.544,291.191 101.504,291.062 101.503 C 290.936 101.501,290.848 100.702,290.792 99.042 C 290.468 89.468,282.437 82.928,272.843 84.424 M300.125 103.451 C 300.331 103.491,300.669 103.491,300.875 103.451 C 301.081 103.411,300.912 103.379,300.500 103.379 C 300.087 103.379,299.919 103.411,300.125 103.451 M301.875 103.448 C 302.035 103.490,302.298 103.490,302.458 103.448 C 302.619 103.406,302.487 103.372,302.167 103.372 C 301.846 103.372,301.715 103.406,301.875 103.448 " stroke="none" fill="#82277a" fill-rule="evenodd"></path><path id="path2" d="M335.138 9.472 C 333.945 9.615,333.949 9.611,334.379 10.504 C 335.050 11.895,334.921 15.086,334.130 16.687 C 331.284 22.450,323.232 22.462,320.381 16.708 C 319.846 15.628,319.500 15.215,319.500 15.655 C 319.500 15.741,319.361 15.855,319.191 15.909 C 318.852 16.017,314.833 19.954,314.833 20.179 C 314.833 20.255,314.353 20.984,313.766 21.798 C 309.159 28.190,307.137 36.954,308.546 44.417 C 309.123 47.472,309.298 47.707,309.317 45.458 L 309.333 43.500 313.083 43.500 L 316.833 43.500 316.833 51.906 L 316.833 60.311 318.458 61.670 C 320.419 63.310,322.294 64.580,324.085 65.480 L 325.417 66.149 325.459 54.824 L 325.502 43.498 338.626 43.541 L 351.750 43.583 351.750 46.583 L 351.750 49.583 342.375 49.626 L 333.000 49.669 333.000 55.001 L 333.000 60.333 340.500 60.333 L 348.000 60.333 348.000 63.417 L 348.000 66.500 340.500 66.500 L 333.000 66.500 333.000 67.478 L 333.000 68.456 333.708 68.564 C 341.650 69.776,350.809 67.118,357.062 61.787 L 357.708 61.236 357.281 60.395 C 355.434 56.750,355.627 51.633,357.726 48.588 C 359.498 46.017,364.142 43.167,366.558 43.167 C 367.195 43.167,367.308 42.859,367.432 40.791 C 368.125 29.196,362.257 18.647,351.959 12.976 C 347.268 10.393,340.028 8.884,335.138 9.472 M220.250 19.100 C 219.975 19.138,218.813 19.285,217.667 19.426 C 211.953 20.132,205.553 22.326,200.583 25.284 C 200.033 25.611,199.433 25.962,199.248 26.064 C 199.064 26.166,198.570 26.498,198.150 26.800 L 197.388 27.351 197.933 28.717 C 200.307 34.664,198.692 41.627,193.982 45.750 C 192.807 46.778,192.759 46.570,194.442 47.742 C 195.225 48.287,196.572 49.401,197.433 50.217 L 199.000 51.699 199.000 47.600 L 199.000 43.500 208.644 43.500 L 218.288 43.500 219.054 41.915 C 223.914 31.863,233.277 25.524,244.208 24.887 C 245.194 24.829,246.000 24.735,246.000 24.676 C 246.000 24.041,238.306 21.094,234.083 20.112 C 230.502 19.279,222.955 18.727,220.250 19.100 M23.493 26.042 C 24.184 26.778,24.333 26.910,24.333 26.785 C 24.333 26.758,23.977 26.402,23.542 25.993 L 22.750 25.250 23.493 26.042 M114.250 28.583 C 114.067 28.616,112.992 28.739,111.862 28.855 C 109.580 29.089,109.185 29.244,109.479 29.793 C 109.830 30.451,110.630 34.088,110.839 35.986 C 111.848 45.126,108.621 53.948,101.847 60.570 L 100.155 62.224 100.202 63.715 L 100.250 65.205 101.485 65.519 C 106.513 66.794,110.546 70.619,112.179 75.662 C 112.857 77.754,113.064 77.634,112.923 75.229 C 112.454 67.236,115.432 59.118,120.967 53.307 L 122.183 52.029 122.217 47.806 L 122.250 43.583 126.250 43.538 L 130.250 43.493 130.959 42.345 C 131.799 40.986,133.395 38.982,134.824 37.490 C 136.017 36.245,136.022 36.280,134.483 35.111 C 133.897 34.666,133.247 34.159,133.040 33.984 C 132.833 33.810,132.635 33.667,132.599 33.667 C 132.563 33.667,132.168 33.423,131.722 33.125 C 128.728 31.127,123.629 29.280,119.917 28.846 C 118.243 28.651,114.764 28.489,114.250 28.583 M262.512 29.146 C 261.894 29.319,261.935 29.548,262.666 30.000 C 263.033 30.226,263.338 30.526,263.344 30.664 C 263.357 30.945,263.827 29.538,263.831 29.208 C 263.834 28.986,263.194 28.956,262.512 29.146 M33.796 30.622 C 34.188 30.657,34.788 30.657,35.129 30.621 C 35.471 30.585,35.150 30.557,34.417 30.557 C 33.683 30.558,33.404 30.587,33.796 30.622 M168.379 33.667 C 168.379 34.079,168.411 34.248,168.451 34.042 C 168.491 33.835,168.491 33.498,168.451 33.292 C 168.411 33.085,168.379 33.254,168.379 33.667 M168.379 35.167 C 168.379 35.579,168.411 35.748,168.451 35.542 C 168.491 35.335,168.491 34.998,168.451 34.792 C 168.411 34.585,168.379 34.754,168.379 35.167 M51.705 37.167 C 51.705 37.487,51.740 37.619,51.782 37.458 C 51.823 37.298,51.823 37.035,51.782 36.875 C 51.740 36.715,51.705 36.846,51.705 37.167 M51.705 41.333 C 51.705 41.654,51.740 41.785,51.782 41.625 C 51.823 41.465,51.823 41.202,51.782 41.042 C 51.740 40.881,51.705 41.012,51.705 41.333 M262.205 41.333 C 262.205 41.654,262.240 41.785,262.282 41.625 C 262.323 41.465,262.323 41.202,262.282 41.042 C 262.240 40.881,262.205 41.012,262.205 41.333 M238.909 49.543 C 238.865 49.658,238.849 52.376,238.873 55.584 L 238.917 61.417 243.917 61.421 L 248.917 61.424 243.958 61.376 L 239.000 61.328 239.000 55.417 L 239.000 49.505 244.208 49.458 L 249.417 49.412 244.203 49.373 C 240.144 49.342,238.972 49.380,238.909 49.543 M206.500 54.995 L 206.500 60.324 211.736 60.370 C 215.211 60.401,216.927 60.361,216.837 60.250 C 216.361 59.663,216.091 52.654,216.463 50.542 L 216.617 49.667 211.558 49.667 L 206.500 49.667 206.500 54.995 M364.688 50.999 C 364.126 51.698,363.661 52.797,363.674 53.396 C 363.683 53.772,364.197 52.883,364.941 51.208 C 365.407 50.158,365.381 50.136,364.688 50.999 M59.667 59.583 C 59.978 59.904,60.270 60.167,60.315 60.167 C 60.361 60.167,60.144 59.904,59.833 59.583 C 59.522 59.262,59.230 59.000,59.185 59.000 C 59.139 59.000,59.356 59.262,59.667 59.583 M268.575 59.875 L 267.917 60.583 268.625 59.925 C 269.015 59.562,269.333 59.243,269.333 59.216 C 269.333 59.090,269.188 59.216,268.575 59.875 M309.319 69.708 C 309.304 76.545,309.277 76.711,308.670 73.667 C 308.140 71.004,307.942 68.159,308.138 65.998 C 308.347 63.693,308.456 63.810,306.952 64.723 C 304.200 66.394,300.565 67.749,297.147 68.380 L 296.044 68.583 297.029 71.083 C 297.571 72.458,298.157 73.921,298.332 74.333 C 298.628 75.029,301.348 81.940,301.548 82.500 C 301.596 82.637,301.757 83.031,301.904 83.375 L 302.171 84.000 298.206 84.000 L 294.242 84.000 293.329 81.586 C 292.259 78.754,292.470 78.888,291.350 80.324 C 289.676 82.471,286.839 84.445,284.250 85.266 C 282.979 85.669,282.681 85.690,281.917 85.429 C 281.733 85.367,282.108 85.592,282.750 85.931 C 287.715 88.548,290.596 93.240,290.791 99.027 L 290.874 101.470 292.062 101.897 C 293.221 102.312,295.486 102.831,297.665 103.180 C 299.304 103.442,304.181 103.393,305.750 103.098 C 309.300 102.432,311.345 101.844,313.440 100.885 C 314.458 100.418,314.419 100.528,314.063 99.139 C 313.279 96.077,314.985 92.286,317.792 90.854 L 318.451 90.518 316.681 88.718 C 315.708 87.727,314.435 86.260,313.853 85.458 L 312.794 84.000 311.060 84.000 L 309.325 84.000 309.440 73.583 C 309.503 67.854,309.505 63.167,309.444 63.167 C 309.383 63.167,309.327 66.110,309.319 69.708 M66.167 64.741 C 66.167 64.787,66.392 64.941,66.667 65.083 C 66.942 65.226,67.167 65.304,67.167 65.259 C 67.167 65.213,66.942 65.059,66.667 64.917 C 66.392 64.774,66.167 64.696,66.167 64.741 M206.575 71.999 L 206.567 77.497 215.992 77.540 L 225.417 77.583 225.462 80.792 L 225.507 84.000 214.795 84.002 L 204.083 84.004 203.417 85.278 C 201.039 89.821,197.604 93.619,193.262 96.508 L 191.461 97.705 192.439 98.648 C 193.822 99.983,195.183 101.106,196.917 102.347 C 198.931 103.788,198.847 103.735,201.583 105.287 C 204.050 106.685,207.618 108.230,209.833 108.858 C 210.154 108.950,210.882 109.170,211.450 109.349 C 218.316 111.511,229.517 111.511,236.383 109.349 C 236.952 109.170,237.679 108.951,238.000 108.861 C 240.352 108.204,245.779 105.760,247.359 104.645 C 247.602 104.474,247.849 104.333,247.907 104.333 C 248.151 104.333,252.883 100.943,253.750 100.147 C 255.614 98.436,257.667 96.423,257.667 96.306 C 257.667 96.225,257.260 95.753,256.763 95.256 C 253.820 92.313,253.812 87.220,256.748 84.500 L 257.197 84.083 256.227 84.000 C 255.325 83.923,255.245 83.881,255.093 83.417 C 255.003 83.142,254.915 82.892,254.897 82.862 C 254.878 82.832,254.313 82.960,253.640 83.146 C 250.026 84.146,244.200 84.405,240.667 83.722 L 239.083 83.417 238.994 75.500 L 238.905 67.583 238.911 75.792 L 238.917 84.000 235.208 84.000 L 231.500 84.000 231.500 82.167 C 231.500 81.158,231.437 80.333,231.359 80.333 C 231.282 80.333,230.435 79.816,229.477 79.184 C 225.282 76.413,221.825 72.546,219.554 68.081 L 218.750 66.502 212.667 66.501 L 206.583 66.500 206.575 71.999 M83.611 68.778 C 83.550 68.839,83.500 70.089,83.500 71.556 C 83.500 73.022,83.544 74.178,83.599 74.123 C 83.653 74.069,83.688 72.862,83.676 71.440 L 83.653 68.855 84.202 68.788 L 84.750 68.720 84.236 68.693 C 83.953 68.679,83.672 68.717,83.611 68.778 M264.055 70.750 C 264.055 71.392,264.086 71.634,264.122 71.288 C 264.158 70.942,264.157 70.417,264.120 70.121 C 264.083 69.825,264.054 70.108,264.055 70.750 M85.135 71.292 C 84.841 71.634,84.621 72.000,84.709 72.000 C 84.743 72.000,84.937 71.775,85.140 71.500 C 85.542 70.957,85.538 70.822,85.135 71.292 M264.667 77.513 C 263.487 78.525,261.667 79.686,261.458 79.561 C 261.299 79.465,261.294 79.492,261.438 79.676 C 261.542 79.809,261.796 80.388,262.004 80.963 C 262.445 82.186,262.374 82.125,263.615 82.351 C 265.377 82.671,267.134 83.764,268.327 85.279 L 268.671 85.717 270.044 85.179 C 270.799 84.884,271.792 84.596,272.250 84.539 L 273.083 84.437 272.500 84.288 C 272.179 84.207,271.580 84.090,271.168 84.028 C 270.536 83.934,270.406 83.850,270.335 83.487 C 270.288 83.250,269.950 82.802,269.583 82.490 C 268.099 81.229,266.538 79.282,265.817 77.792 C 265.367 76.863,265.413 76.874,264.667 77.513 M122.232 81.667 C 122.232 82.904,122.258 83.410,122.290 82.792 C 122.322 82.173,122.322 81.160,122.290 80.542 C 122.258 79.923,122.232 80.429,122.232 81.667 M350.000 85.750 C 350.311 86.071,350.603 86.333,350.649 86.333 C 350.695 86.333,350.478 86.071,350.167 85.750 C 349.856 85.429,349.564 85.167,349.518 85.167 C 349.472 85.167,349.689 85.429,350.000 85.750 M111.083 87.500 C 110.941 87.775,110.862 88.000,110.908 88.000 C 110.954 88.000,111.108 87.775,111.250 87.500 C 111.392 87.225,111.471 87.000,111.425 87.000 C 111.379 87.000,111.226 87.225,111.083 87.500 M86.250 90.667 C 86.608 91.033,86.938 91.333,86.984 91.333 C 87.030 91.333,86.775 91.033,86.417 90.667 C 86.059 90.300,85.728 90.000,85.682 90.000 C 85.637 90.000,85.892 90.300,86.250 90.667 M104.625 93.845 C 104.281 94.026,104.000 94.212,104.000 94.257 C 104.000 94.303,104.300 94.187,104.667 94.000 C 105.033 93.813,105.333 93.624,105.333 93.580 C 105.333 93.471,105.332 93.471,104.625 93.845 M132.708 97.615 C 132.869 97.657,133.131 97.657,133.292 97.615 C 133.452 97.573,133.321 97.539,133.000 97.539 C 132.679 97.539,132.548 97.573,132.708 97.615 M261.792 97.618 C 261.998 97.657,262.335 97.657,262.542 97.618 C 262.748 97.578,262.579 97.545,262.167 97.545 C 261.754 97.545,261.585 97.578,261.792 97.618 M128.143 98.510 L 127.750 98.853 128.250 98.560 C 128.908 98.175,128.918 98.167,128.713 98.167 C 128.616 98.167,128.360 98.321,128.143 98.510 M137.417 99.833 C 137.868 100.292,138.275 100.667,138.321 100.667 C 138.367 100.667,138.035 100.292,137.583 99.833 C 137.132 99.375,136.725 99.000,136.679 99.000 C 136.633 99.000,136.965 99.375,137.417 99.833 M126.491 99.792 L 125.917 100.417 126.542 99.842 C 127.123 99.308,127.243 99.167,127.116 99.167 C 127.088 99.167,126.807 99.448,126.491 99.792 " stroke="none" fill="#bc3b93" fill-rule="evenodd"></path><path id="path3" d="M30.417 0.355 C 29.775 0.537,29.179 0.757,29.092 0.843 C 29.005 0.929,28.771 1.000,28.573 1.000 C 28.375 1.000,27.959 1.172,27.648 1.383 C 27.338 1.594,26.951 1.817,26.788 1.879 C 25.385 2.417,22.824 4.807,21.520 6.796 C 18.587 11.269,18.178 19.648,20.760 22.324 C 20.898 22.467,21.314 23.064,21.685 23.652 C 25.903 30.326,35.441 32.547,42.250 28.440 C 43.217 27.857,46.667 25.039,46.667 24.832 C 46.667 24.755,46.845 24.480,47.064 24.220 C 49.557 21.257,50.614 14.736,49.238 10.808 C 49.002 10.135,48.764 9.433,48.709 9.250 C 48.267 7.769,46.159 4.930,44.456 3.523 C 43.884 3.051,43.316 2.581,43.193 2.479 C 40.675 0.378,34.153 -0.706,30.417 0.355 M381.000 0.243 C 378.366 1.037,375.637 2.444,374.602 3.540 C 374.407 3.747,374.023 4.105,373.749 4.336 C 373.060 4.915,371.000 7.654,371.000 7.990 C 371.000 8.058,370.776 8.519,370.503 9.015 C 370.230 9.511,370.004 10.067,370.001 10.250 C 369.998 10.433,369.835 11.071,369.637 11.667 C 368.503 15.096,369.438 20.219,371.899 24.067 C 372.908 25.644,376.440 28.833,377.178 28.833 C 377.267 28.833,377.630 29.016,377.984 29.240 C 378.918 29.830,381.628 30.571,383.455 30.736 C 385.836 30.951,389.534 30.242,391.280 29.235 C 391.663 29.014,392.053 28.833,392.147 28.833 C 392.745 28.833,397.167 24.991,397.167 24.471 C 397.167 24.387,397.298 24.178,397.459 24.005 C 399.789 21.504,400.777 14.804,399.415 10.733 C 398.829 8.983,397.730 6.667,397.486 6.667 C 397.414 6.667,397.309 6.518,397.251 6.336 C 397.147 6.010,396.861 5.668,395.625 4.394 C 394.591 3.328,394.030 2.833,393.856 2.833 C 393.765 2.833,393.576 2.718,393.435 2.578 C 391.475 0.618,384.254 -0.738,381.000 0.243 M324.167 6.215 C 319.079 8.392,317.907 14.819,321.870 18.808 C 325.545 22.505,331.790 21.425,334.130 16.687 C 334.877 15.176,335.061 11.819,334.459 10.717 C 334.298 10.424,334.146 10.048,334.121 9.881 C 333.652 6.807,327.812 4.656,324.167 6.215 M78.917 9.450 C 77.243 9.602,74.239 10.213,72.333 10.790 C 68.873 11.837,64.142 14.439,61.917 16.521 C 58.880 19.361,57.882 20.502,56.413 22.815 C 56.320 22.963,56.053 23.383,55.820 23.750 C 54.559 25.738,52.483 30.738,52.533 31.667 C 52.546 31.896,52.436 32.683,52.290 33.417 C 50.473 42.550,53.157 52.321,59.332 59.054 C 60.398 60.215,60.270 60.364,61.167 56.911 C 61.548 55.448,61.998 53.725,62.168 53.083 C 63.015 49.884,63.724 47.149,63.941 46.250 C 64.074 45.700,64.296 44.856,64.436 44.375 L 64.690 43.500 67.947 43.500 L 71.204 43.500 71.093 44.125 C 71.032 44.469,70.801 45.425,70.580 46.250 C 70.358 47.075,69.948 48.612,69.669 49.667 C 69.389 50.721,68.978 52.258,68.755 53.083 C 68.006 55.849,67.365 58.235,66.827 60.250 C 66.534 61.350,66.156 62.735,65.988 63.328 C 65.821 63.921,65.698 64.418,65.717 64.432 C 67.155 65.568,74.398 68.333,75.935 68.333 C 76.131 68.333,76.167 66.408,76.167 55.917 L 76.167 43.500 79.917 43.500 L 83.667 43.500 83.667 56.083 L 83.667 68.667 84.208 68.661 C 84.506 68.657,85.537 68.518,86.500 68.350 C 88.611 67.983,88.546 67.945,87.428 68.899 C 86.405 69.773,84.698 71.954,84.076 73.181 C 83.668 73.986,83.667 74.009,83.667 78.994 L 83.667 84.000 83.237 84.000 C 82.839 84.000,82.816 84.041,82.922 84.542 C 83.632 87.887,86.951 91.974,90.482 93.849 C 90.996 94.122,91.642 94.488,91.917 94.663 C 93.595 95.731,99.363 96.097,101.244 95.256 C 101.522 95.131,102.200 94.870,102.750 94.675 C 107.145 93.117,110.559 89.648,112.070 85.205 L 112.480 84.000 102.407 84.000 L 92.333 84.000 92.333 63.750 L 92.333 43.500 96.250 43.500 L 100.167 43.500 100.167 52.750 C 100.167 57.837,100.224 62.000,100.294 62.000 C 100.471 62.000,103.972 58.420,104.695 57.500 C 110.394 50.249,112.418 40.348,109.994 31.583 C 109.715 30.575,109.465 29.563,109.439 29.333 C 109.412 29.104,109.267 28.654,109.115 28.333 C 108.964 28.012,108.744 27.488,108.626 27.167 C 107.811 24.946,105.086 20.874,102.881 18.581 C 101.754 17.409,100.011 15.833,99.842 15.833 C 99.778 15.833,99.549 15.646,99.333 15.417 C 99.118 15.188,98.881 15.000,98.806 15.000 C 98.731 15.000,98.336 14.756,97.929 14.458 C 93.100 10.924,85.301 8.870,78.917 9.450 M288.417 9.574 C 284.155 10.159,279.140 11.859,276.609 13.577 C 276.266 13.809,275.956 14.000,275.920 14.000 C 275.681 14.000,273.245 15.794,272.694 16.375 C 272.455 16.627,272.210 16.833,272.149 16.833 C 271.834 16.833,268.000 20.970,268.000 21.310 C 268.000 21.399,267.937 21.497,267.860 21.528 C 267.636 21.617,265.167 25.512,265.167 25.777 C 265.167 25.867,264.949 26.348,264.684 26.845 C 264.418 27.343,264.149 27.994,264.087 28.292 C 264.025 28.590,263.907 28.833,263.825 28.833 C 263.744 28.833,263.716 28.936,263.765 29.061 C 263.813 29.187,263.663 29.955,263.431 30.770 C 260.744 40.218,262.683 50.156,268.678 57.654 L 269.667 58.891 268.530 60.070 C 262.623 66.197,262.691 75.669,268.684 81.644 C 270.541 83.495,270.333 85.810,270.333 63.256 L 270.333 43.500 280.397 43.500 C 292.889 43.500,294.351 43.689,297.525 45.720 C 303.091 49.280,304.013 58.672,299.262 63.431 C 298.322 64.373,295.862 66.000,295.378 66.000 C 295.078 66.000,295.109 66.186,295.620 67.430 L 296.073 68.533 296.845 68.431 C 300.064 68.004,304.919 66.113,307.917 64.120 L 309.250 63.233 309.296 55.492 C 309.339 48.270,309.320 47.666,309.017 46.500 C 306.869 38.235,308.670 28.869,313.766 21.798 C 315.072 19.987,315.148 20.390,313.125 18.380 C 312.185 17.446,311.226 16.492,310.994 16.258 C 310.761 16.024,310.484 15.833,310.377 15.833 C 310.270 15.833,310.123 15.732,310.050 15.608 C 309.977 15.484,309.241 14.937,308.415 14.392 C 302.603 10.560,294.848 8.692,288.417 9.574 M181.583 19.111 C 179.574 19.546,178.220 19.885,178.083 19.987 C 177.992 20.055,177.654 20.210,177.333 20.332 C 176.572 20.621,174.333 21.995,174.333 22.173 C 174.333 22.249,174.200 22.353,174.038 22.405 C 173.685 22.517,172.609 23.593,171.342 25.102 C 170.932 25.591,169.500 28.042,169.500 28.255 C 169.500 28.367,169.336 28.823,169.135 29.270 C 167.904 32.009,168.434 38.218,170.175 41.465 C 170.617 42.289,170.761 42.702,170.622 42.748 C 170.509 42.786,169.929 42.963,169.333 43.143 L 168.250 43.469 174.442 43.484 C 183.357 43.507,185.478 43.936,187.856 46.199 C 193.174 51.261,192.043 59.833,185.705 62.507 C 184.525 63.005,184.527 63.016,185.812 63.396 C 194.200 65.875,194.866 78.814,186.803 82.644 C 184.123 83.918,184.511 83.882,172.708 83.956 L 162.167 84.022 162.167 65.094 C 162.167 54.684,162.119 46.167,162.060 46.167 C 161.835 46.167,159.195 48.016,158.075 48.957 L 156.901 49.946 155.992 49.138 C 153.053 46.524,149.393 44.824,145.479 44.257 C 142.499 43.825,142.131 43.900,143.881 44.585 C 151.839 47.701,156.279 55.946,155.479 66.127 C 155.192 69.782,153.727 74.031,151.949 76.366 C 148.827 80.468,143.656 83.667,140.148 83.667 C 138.923 83.667,139.851 83.980,141.375 84.081 C 143.360 84.212,145.327 84.003,147.807 83.397 C 148.755 83.165,149.553 83.000,149.581 83.029 C 149.609 83.059,149.970 83.796,150.384 84.667 C 152.313 88.727,155.390 92.439,159.231 95.338 C 160.067 95.969,160.899 96.619,161.082 96.784 C 161.573 97.227,162.492 97.833,162.672 97.833 C 162.758 97.833,163.194 98.058,163.641 98.333 C 164.088 98.608,164.525 98.833,164.612 98.833 C 164.699 98.833,165.088 98.987,165.475 99.174 C 176.119 104.316,191.011 100.832,199.333 91.252 C 201.005 89.328,204.000 84.743,204.000 84.108 C 204.000 84.049,202.875 84.000,201.500 84.000 L 199.000 84.000 199.000 67.850 L 199.000 51.699 197.433 50.217 C 196.572 49.401,195.225 48.287,194.442 47.742 C 192.759 46.570,192.807 46.778,193.982 45.750 C 198.680 41.638,200.290 34.749,197.954 28.753 C 197.667 28.018,197.418 27.326,197.399 27.214 C 197.380 27.103,197.208 26.791,197.016 26.522 C 196.824 26.252,196.667 25.958,196.667 25.867 C 196.667 25.776,196.480 25.525,196.253 25.309 C 196.025 25.093,195.838 24.871,195.836 24.816 C 195.832 24.657,193.518 22.333,193.364 22.333 C 193.287 22.333,193.049 22.146,192.833 21.917 C 192.618 21.688,192.384 21.500,192.313 21.500 C 192.242 21.500,191.850 21.275,191.443 21.000 C 191.035 20.725,190.633 20.500,190.549 20.500 C 190.465 20.500,190.063 20.338,189.656 20.139 C 189.250 19.941,188.654 19.723,188.333 19.654 C 188.012 19.586,187.225 19.412,186.583 19.268 C 185.505 19.026,182.424 18.929,181.583 19.111 M367.605 34.455 C 367.145 34.523,367.130 34.553,367.230 35.221 C 367.437 36.604,367.524 40.446,367.378 41.718 L 367.228 43.020 369.072 42.909 C 375.871 42.497,382.020 45.228,384.235 49.641 C 385.105 51.374,385.146 51.777,384.468 51.914 C 383.886 52.032,378.606 53.299,378.149 53.430 C 377.956 53.486,377.801 53.297,377.592 52.751 C 376.244 49.219,369.296 47.616,365.803 50.031 C 365.316 50.368,363.664 53.620,363.670 54.230 C 363.694 56.513,365.733 57.719,372.312 59.342 C 381.060 61.500,383.285 62.664,385.148 66.056 C 389.188 73.412,385.042 81.770,376.277 83.939 C 366.349 86.395,356.823 82.711,354.233 75.413 C 353.712 73.946,353.660 74.064,354.921 73.851 C 355.469 73.759,356.707 73.501,357.673 73.279 C 358.639 73.056,359.807 72.822,360.268 72.759 L 361.107 72.644 361.408 73.639 C 362.371 76.819,365.127 78.332,370.186 78.458 C 375.748 78.597,378.583 76.839,378.583 73.250 C 378.583 70.326,377.234 69.021,373.167 68.010 C 372.479 67.839,370.717 67.382,369.250 66.995 C 367.783 66.608,366.171 66.191,365.667 66.067 C 362.121 65.201,358.390 62.990,357.907 61.471 C 357.829 61.225,357.610 61.340,356.553 62.180 C 352.237 65.610,346.833 67.977,341.958 68.573 C 341.085 68.680,341.007 68.723,341.080 69.054 C 341.814 72.390,342.447 74.399,343.490 76.705 L 343.846 77.494 347.881 77.539 L 351.917 77.583 351.962 80.792 L 352.007 84.000 350.239 84.000 L 348.470 84.000 348.860 84.463 C 350.162 86.008,353.730 88.785,355.875 89.922 C 356.494 90.250,357.000 90.578,357.000 90.650 C 357.000 90.723,357.319 90.917,357.708 91.080 C 358.098 91.244,358.813 91.556,359.297 91.773 C 359.781 91.990,360.456 92.238,360.797 92.325 C 361.138 92.412,361.942 92.633,362.583 92.816 C 370.082 94.952,379.756 93.521,386.083 89.339 C 386.633 88.975,387.195 88.623,387.332 88.556 C 388.750 87.858,393.099 83.614,394.417 81.641 C 396.245 78.904,396.195 78.988,397.218 76.899 C 400.394 70.406,400.970 60.850,398.564 54.540 C 398.346 53.966,398.167 53.416,398.167 53.317 C 398.167 53.131,397.301 51.227,396.886 50.500 C 396.756 50.271,396.533 49.821,396.392 49.500 C 396.250 49.179,396.004 48.767,395.845 48.583 C 395.686 48.400,395.352 47.894,395.104 47.458 C 394.856 47.023,394.581 46.667,394.493 46.667 C 394.405 46.667,394.333 46.571,394.333 46.454 C 394.333 46.337,394.127 46.006,393.875 45.718 C 391.511 43.022,390.984 42.477,389.774 41.477 C 389.512 41.260,389.152 40.947,388.972 40.781 C 388.256 40.118,385.158 38.132,383.833 37.486 C 378.676 34.971,372.222 33.766,367.605 34.455 M130.000 63.598 L 130.000 77.863 134.125 77.795 C 139.589 77.704,141.028 77.233,143.666 74.667 C 149.065 69.416,148.761 57.169,143.099 51.873 C 140.870 49.788,139.228 49.340,133.792 49.336 L 130.000 49.333 130.000 63.598 M169.333 54.842 L 169.333 60.351 174.625 60.300 L 179.917 60.250 180.864 59.785 C 184.135 58.178,184.897 52.981,182.175 50.844 C 180.546 49.565,179.248 49.333,173.719 49.333 L 169.333 49.333 169.333 54.842 M278.000 55.417 L 278.000 61.333 283.385 61.333 C 289.396 61.333,290.628 61.168,292.088 60.163 C 295.039 58.133,295.393 53.891,292.829 51.308 C 291.181 49.649,290.417 49.500,283.575 49.500 L 278.000 49.500 278.000 55.417 M100.167 71.184 L 100.167 77.167 106.411 77.167 C 111.331 77.167,112.642 77.122,112.591 76.958 C 112.555 76.844,112.360 76.225,112.156 75.583 C 110.538 70.476,106.162 66.509,100.875 65.357 L 100.167 65.202 100.167 71.184 M169.333 71.999 L 169.333 77.686 175.125 77.635 L 180.917 77.583 181.939 77.049 C 185.422 75.228,185.930 70.153,182.870 67.749 C 181.280 66.501,180.828 66.424,174.708 66.365 L 169.333 66.312 169.333 71.999 M278.000 75.750 L 278.000 84.000 274.875 84.003 C 273.093 84.004,271.846 84.066,271.974 84.147 C 272.097 84.225,273.372 84.254,274.807 84.211 C 277.746 84.123,278.876 84.292,281.284 85.179 L 282.710 85.704 283.764 85.419 C 286.670 84.632,289.722 82.522,291.644 79.968 L 292.359 79.019 291.672 77.218 C 291.294 76.227,290.391 73.832,289.665 71.895 C 288.939 69.958,288.255 68.177,288.145 67.937 L 287.946 67.500 282.973 67.500 L 278.000 67.500 278.000 75.750 M206.567 71.750 C 206.568 73.217,206.593 73.794,206.624 73.034 C 206.655 72.273,206.655 71.073,206.624 70.367 C 206.593 69.661,206.567 70.283,206.567 71.750 M262.835 83.004 C 263.017 83.467,263.167 83.880,263.167 83.923 C 263.167 83.965,261.832 84.000,260.200 84.000 L 257.234 84.000 256.643 84.625 C 254.367 87.033,253.893 90.232,255.358 93.302 C 258.655 100.210,269.197 98.102,269.785 90.417 C 270.090 86.435,267.212 82.869,263.210 82.269 L 262.504 82.163 262.835 83.004 M130.599 97.676 C 128.182 98.081,125.759 100.138,124.910 102.507 C 124.268 104.296,124.302 107.385,124.976 108.563 C 125.127 108.827,125.341 109.201,125.451 109.394 C 126.730 111.618,128.966 112.750,132.081 112.750 L 134.417 112.750 135.614 112.119 C 138.818 110.432,140.872 105.729,139.508 103.203 C 139.423 103.045,139.165 102.483,138.934 101.953 C 137.621 98.941,134.035 97.101,130.599 97.676 " stroke="none" fill="#eb238c" fill-rule="evenodd"></path><path id="path4" d="M309.410 55.333 C 309.410 59.596,309.432 61.340,309.458 59.208 C 309.485 57.077,309.485 53.590,309.458 51.458 C 309.432 49.327,309.410 51.071,309.410 55.333 M129.913 63.583 C 129.913 71.467,129.933 74.667,129.958 70.696 C 129.983 66.724,129.983 60.274,129.958 56.362 C 129.933 52.451,129.913 55.700,129.913 63.583 M280.542 49.458 C 281.985 49.486,284.348 49.486,285.792 49.458 C 287.235 49.430,286.054 49.408,283.167 49.408 C 280.279 49.408,279.098 49.430,280.542 49.458 M375.833 50.385 C 375.833 50.414,376.077 50.658,376.375 50.927 L 376.917 51.417 376.427 50.875 C 375.971 50.370,375.833 50.257,375.833 50.385 M302.225 55.333 C 302.225 56.112,302.254 56.431,302.289 56.042 C 302.324 55.652,302.324 55.015,302.289 54.625 C 302.254 54.235,302.225 54.554,302.225 55.333 M294.539 55.333 C 294.539 55.654,294.573 55.785,294.615 55.625 C 294.657 55.465,294.657 55.202,294.615 55.042 C 294.573 54.881,294.539 55.012,294.539 55.333 M206.403 71.750 C 206.403 73.583,206.428 74.356,206.457 73.467 C 206.487 72.578,206.488 71.078,206.458 70.134 C 206.428 69.189,206.404 69.917,206.403 71.750 M386.553 71.833 C 386.553 72.429,386.584 72.673,386.621 72.375 C 386.658 72.077,386.658 71.590,386.621 71.292 C 386.584 70.994,386.553 71.237,386.553 71.833 M378.705 73.333 C 378.705 73.654,378.740 73.785,378.782 73.625 C 378.823 73.465,378.823 73.202,378.782 73.042 C 378.740 72.881,378.705 73.012,378.705 73.333 M351.903 80.833 C 351.903 82.621,351.928 83.352,351.958 82.458 C 351.988 81.565,351.988 80.102,351.958 79.208 C 351.928 78.315,351.903 79.046,351.903 80.833 M369.875 84.621 C 370.219 84.657,370.781 84.657,371.125 84.621 C 371.469 84.585,371.188 84.556,370.500 84.556 C 369.813 84.556,369.531 84.585,369.875 84.621 " stroke="none" fill="#f45fac" fill-rule="evenodd"></path><path id="path5" d="M162.224 44.750 C 162.224 45.483,162.254 45.763,162.289 45.371 C 162.324 44.979,162.324 44.379,162.288 44.037 C 162.252 43.696,162.223 44.017,162.224 44.750 M231.580 62.000 C 231.580 72.221,231.600 76.402,231.625 71.292 C 231.649 66.181,231.649 57.819,231.625 52.708 C 231.600 47.598,231.580 51.779,231.580 62.000 M309.398 45.583 C 309.398 46.775,309.425 47.241,309.457 46.618 C 309.489 45.996,309.489 45.021,309.457 44.451 C 309.424 43.882,309.398 44.392,309.398 45.583 M122.239 47.750 C 122.239 50.042,122.262 51.002,122.291 49.885 C 122.320 48.767,122.320 46.892,122.291 45.718 C 122.263 44.544,122.239 45.458,122.239 47.750 M351.736 46.583 C 351.736 48.233,351.761 48.886,351.791 48.033 C 351.821 47.181,351.821 45.831,351.791 45.033 C 351.760 44.236,351.735 44.933,351.736 46.583 M206.413 55.000 L 206.417 60.417 211.625 60.420 L 216.833 60.424 211.669 60.376 L 206.505 60.329 206.457 54.956 L 206.410 49.583 206.413 55.000 M336.708 60.458 C 338.794 60.485,342.206 60.485,344.292 60.458 C 346.377 60.432,344.671 60.410,340.500 60.410 C 336.329 60.410,334.623 60.432,336.708 60.458 M100.060 63.667 C 100.060 64.537,100.088 64.894,100.123 64.458 C 100.157 64.023,100.157 63.310,100.123 62.875 C 100.088 62.440,100.060 62.796,100.060 63.667 M325.578 75.000 C 325.578 79.904,325.599 81.910,325.625 79.458 C 325.651 77.006,325.651 72.994,325.625 70.542 C 325.599 68.090,325.578 70.096,325.578 75.000 M219.463 66.456 C 219.855 66.491,220.455 66.490,220.796 66.454 C 221.137 66.419,220.817 66.390,220.083 66.390 C 219.350 66.391,219.071 66.420,219.463 66.456 M206.375 77.042 L 206.417 77.583 215.871 77.626 L 225.326 77.669 225.377 80.793 L 225.427 83.917 225.422 80.750 L 225.417 77.583 215.969 77.540 L 206.521 77.497 206.427 76.999 C 206.335 76.509,206.334 76.510,206.375 77.042 M309.405 80.250 C 309.405 82.358,309.429 83.198,309.458 82.116 C 309.487 81.033,309.487 79.308,309.458 78.282 C 309.428 77.256,309.405 78.142,309.405 80.250 " stroke="none" fill="#c16faf" fill-rule="evenodd"></path><path id="path6" d="M369.961 42.954 C 370.261 42.991,370.711 42.990,370.961 42.952 C 371.212 42.914,370.967 42.884,370.417 42.885 C 369.867 42.886,369.662 42.917,369.961 42.954 M76.247 63.667 C 76.247 74.804,76.267 79.360,76.292 73.792 C 76.316 68.223,76.316 59.110,76.292 53.542 C 76.267 47.973,76.247 52.529,76.247 63.667 M179.627 43.618 C 179.834 43.658,180.134 43.656,180.294 43.615 C 180.453 43.573,180.283 43.540,179.917 43.542 C 179.550 43.544,179.420 43.578,179.627 43.618 M199.081 63.750 C 199.081 74.933,199.101 79.484,199.125 73.862 C 199.149 68.240,199.149 59.090,199.125 53.529 C 199.101 47.967,199.081 52.567,199.081 63.750 M289.627 43.618 C 289.834 43.658,290.134 43.656,290.294 43.615 C 290.453 43.573,290.283 43.540,289.917 43.542 C 289.550 43.544,289.420 43.578,289.627 43.618 M316.744 51.833 C 316.744 56.462,316.765 58.356,316.792 56.042 C 316.818 53.727,316.818 49.940,316.792 47.625 C 316.765 45.310,316.744 47.204,316.744 51.833 M325.579 54.917 C 325.579 61.150,325.600 63.676,325.625 60.529 C 325.650 57.383,325.650 52.283,325.625 49.196 C 325.600 46.109,325.579 48.683,325.579 54.917 M162.247 64.917 C 162.247 75.367,162.267 79.666,162.292 74.471 C 162.316 69.276,162.316 60.726,162.292 55.471 C 162.267 50.216,162.247 54.467,162.247 64.917 M359.075 47.042 L 358.417 47.750 359.125 47.091 C 359.784 46.478,359.910 46.333,359.784 46.333 C 359.757 46.333,359.438 46.652,359.075 47.042 M382.167 47.083 C 382.478 47.404,382.770 47.667,382.815 47.667 C 382.861 47.667,382.644 47.404,382.333 47.083 C 382.022 46.762,381.730 46.500,381.685 46.500 C 381.639 46.500,381.856 46.762,382.167 47.083 M209.052 49.625 C 210.502 49.653,212.827 49.652,214.219 49.625 C 215.611 49.597,214.425 49.574,211.583 49.574 C 208.742 49.574,207.603 49.597,209.052 49.625 M332.909 49.710 C 332.865 49.825,332.849 52.282,332.875 55.168 L 332.922 60.417 332.961 55.043 L 333.000 49.669 342.375 49.625 L 351.750 49.581 342.370 49.540 C 334.953 49.508,332.973 49.544,332.909 49.710 M363.548 53.750 C 363.549 54.208,363.581 54.376,363.620 54.123 C 363.658 53.869,363.657 53.494,363.617 53.289 C 363.578 53.084,363.546 53.292,363.548 53.750 M183.883 54.667 C 183.883 55.171,183.915 55.377,183.953 55.125 C 183.991 54.873,183.991 54.460,183.953 54.208 C 183.915 53.956,183.883 54.163,183.883 54.667 M147.563 63.500 C 147.563 64.554,147.590 64.985,147.623 64.458 C 147.656 63.931,147.656 63.069,147.623 62.542 C 147.590 62.015,147.563 62.446,147.563 63.500 M189.493 65.708 C 189.902 66.144,190.258 66.500,190.285 66.500 C 190.410 66.500,190.278 66.350,189.542 65.660 L 188.750 64.917 189.493 65.708 M209.375 66.458 C 211.094 66.485,213.906 66.485,215.625 66.458 C 217.344 66.431,215.938 66.409,212.500 66.409 C 209.063 66.409,207.656 66.431,209.375 66.458 M332.902 66.562 C 332.854 66.687,332.842 67.193,332.876 67.687 L 332.938 68.583 332.969 67.543 L 333.000 66.503 340.458 66.458 L 347.917 66.413 340.453 66.373 C 334.262 66.340,332.975 66.372,332.902 66.562 M206.383 67.667 C 206.383 68.171,206.415 68.377,206.453 68.125 C 206.491 67.873,206.491 67.460,206.453 67.208 C 206.415 66.956,206.383 67.162,206.383 67.667 M183.333 68.083 C 183.644 68.404,183.936 68.667,183.982 68.667 C 184.028 68.667,183.811 68.404,183.500 68.083 C 183.189 67.762,182.897 67.500,182.851 67.500 C 182.805 67.500,183.022 67.762,183.333 68.083 M192.390 72.917 C 192.391 73.650,192.420 73.929,192.456 73.537 C 192.491 73.145,192.490 72.545,192.454 72.204 C 192.419 71.863,192.390 72.183,192.390 72.917 M143.833 74.583 C 143.428 74.996,143.135 75.333,143.181 75.333 C 143.226 75.333,143.595 74.996,144.000 74.583 C 144.405 74.171,144.699 73.833,144.653 73.833 C 144.607 73.833,144.238 74.171,143.833 74.583 M206.381 75.750 C 206.382 76.208,206.415 76.376,206.453 76.123 C 206.491 75.869,206.490 75.494,206.451 75.289 C 206.411 75.084,206.380 75.292,206.381 75.750 M362.833 76.250 C 363.144 76.571,363.436 76.833,363.482 76.833 C 363.528 76.833,363.311 76.571,363.000 76.250 C 362.689 75.929,362.397 75.667,362.351 75.667 C 362.305 75.667,362.522 75.929,362.833 76.250 M131.708 77.958 C 132.785 77.987,134.548 77.987,135.625 77.958 C 136.702 77.929,135.821 77.905,133.667 77.905 C 131.512 77.905,130.631 77.929,131.708 77.958 M122.399 81.583 C 122.399 82.867,122.426 83.370,122.457 82.701 C 122.489 82.032,122.489 80.982,122.457 80.368 C 122.425 79.753,122.399 80.300,122.399 81.583 M357.083 80.000 C 357.441 80.367,357.772 80.667,357.818 80.667 C 357.863 80.667,357.608 80.367,357.250 80.000 C 356.892 79.633,356.562 79.333,356.516 79.333 C 356.470 79.333,356.725 79.633,357.083 80.000 M383.167 80.083 C 382.762 80.496,382.468 80.833,382.514 80.833 C 382.560 80.833,382.928 80.496,383.333 80.083 C 383.738 79.671,384.032 79.333,383.986 79.333 C 383.940 79.333,383.572 79.671,383.167 80.083 M231.562 82.167 C 231.562 83.129,231.589 83.523,231.623 83.042 C 231.657 82.560,231.657 81.773,231.623 81.292 C 231.589 80.810,231.562 81.204,231.562 82.167 M180.460 83.951 C 180.668 83.991,180.968 83.990,181.127 83.948 C 181.286 83.906,181.117 83.874,180.750 83.875 C 180.383 83.877,180.253 83.911,180.460 83.951 M367.375 84.448 C 367.535 84.490,367.798 84.490,367.958 84.448 C 368.119 84.406,367.988 84.372,367.667 84.372 C 367.346 84.372,367.215 84.406,367.375 84.448 M372.875 84.448 C 373.035 84.490,373.298 84.490,373.458 84.448 C 373.619 84.406,373.488 84.372,373.167 84.372 C 372.846 84.372,372.715 84.406,372.875 84.448 " stroke="none" fill="#e884bc" fill-rule="evenodd"></path><path id="path7" d="M225.037 46.539 L 225.000 49.494 220.792 49.542 L 216.583 49.589 220.797 49.628 C 224.106 49.658,225.028 49.621,225.093 49.452 C 225.138 49.334,225.152 47.966,225.125 46.411 L 225.075 43.583 225.037 46.539 M259.917 47.000 C 260.275 47.367,260.605 47.667,260.651 47.667 C 260.697 47.667,260.441 47.367,260.083 47.000 C 259.725 46.633,259.395 46.333,259.349 46.333 C 259.303 46.333,259.559 46.633,259.917 47.000 M122.413 65.750 C 122.413 73.267,122.433 76.317,122.458 72.529 C 122.483 68.741,122.483 62.591,122.458 58.863 C 122.433 55.134,122.413 58.233,122.413 65.750 M316.746 72.083 C 316.746 78.683,316.766 81.359,316.792 78.029 C 316.817 74.700,316.817 69.300,316.792 66.029 C 316.766 62.759,316.746 65.483,316.746 72.083 M221.402 63.417 C 221.402 65.067,221.427 65.719,221.458 64.867 C 221.488 64.014,221.488 62.664,221.457 61.867 C 221.427 61.069,221.402 61.767,221.402 63.417 M260.158 63.458 L 259.583 64.083 260.208 63.509 C 260.552 63.193,260.833 62.912,260.833 62.884 C 260.833 62.757,260.692 62.877,260.158 63.458 M332.907 73.083 C 332.907 75.650,332.930 76.677,332.958 75.365 C 332.986 74.053,332.986 71.953,332.958 70.698 C 332.930 69.443,332.907 70.517,332.907 73.083 M117.237 80.583 C 117.237 82.417,117.261 83.189,117.291 82.301 C 117.321 81.412,117.321 79.912,117.291 78.967 C 117.261 78.023,117.237 78.750,117.237 80.583 M136.294 83.951 C 136.501 83.991,136.801 83.990,136.960 83.948 C 137.120 83.906,136.950 83.874,136.583 83.875 C 136.217 83.877,136.086 83.911,136.294 83.951 " stroke="none" fill="#bc94bc" fill-rule="evenodd"></path><path id="path8" d="M83.579 56.083 C 83.579 63.050,83.600 65.876,83.625 62.363 C 83.650 58.850,83.650 53.150,83.625 49.696 C 83.600 46.242,83.579 49.117,83.579 56.083 M100.078 52.833 C 100.078 58.012,100.099 60.131,100.125 57.542 C 100.151 54.952,100.151 50.715,100.125 48.125 C 100.099 45.535,100.078 47.654,100.078 52.833 M270.414 63.333 C 270.414 74.287,270.434 78.769,270.458 73.292 C 270.483 67.815,270.483 58.852,270.458 53.375 C 270.434 47.898,270.414 52.379,270.414 63.333 M370.128 48.954 C 370.428 48.991,370.878 48.990,371.128 48.952 C 371.378 48.914,371.133 48.884,370.583 48.885 C 370.033 48.886,369.828 48.917,370.128 48.954 M169.247 54.833 L 169.250 60.417 173.833 60.421 L 178.417 60.425 173.877 60.376 L 169.338 60.328 169.290 54.789 L 169.243 49.250 169.247 54.833 M277.914 55.500 L 277.917 61.417 282.833 61.420 L 287.750 61.424 282.877 61.376 L 278.004 61.328 277.957 55.456 L 277.910 49.583 277.914 55.500 M155.550 63.833 C 155.550 64.337,155.581 64.544,155.619 64.292 C 155.658 64.040,155.658 63.627,155.619 63.375 C 155.581 63.123,155.550 63.329,155.550 63.833 M100.080 71.208 L 100.083 77.250 106.333 77.253 L 112.583 77.256 106.377 77.209 L 100.171 77.163 100.124 71.165 L 100.077 65.167 100.080 71.208 M169.247 72.042 L 169.250 77.750 174.167 77.754 L 179.083 77.757 174.211 77.710 L 169.338 77.662 169.291 71.997 L 169.243 66.333 169.247 72.042 M277.910 67.542 C 277.866 67.656,277.850 71.425,277.875 75.917 L 277.920 84.083 277.960 75.794 L 278.000 67.505 283.042 67.458 L 288.083 67.412 283.036 67.372 C 279.123 67.342,277.972 67.380,277.910 67.542 M83.574 79.083 C 83.574 81.833,83.597 82.982,83.625 81.635 C 83.653 80.289,83.653 78.039,83.625 76.635 C 83.597 75.232,83.574 76.333,83.574 79.083 M345.792 77.625 C 346.915 77.653,348.752 77.653,349.875 77.625 C 350.998 77.596,350.079 77.572,347.833 77.572 C 345.587 77.572,344.669 77.596,345.792 77.625 M149.744 78.875 L 148.917 79.750 149.792 78.923 C 150.605 78.154,150.743 78.000,150.619 78.000 C 150.592 78.000,150.199 78.394,149.744 78.875 M369.963 78.622 C 370.355 78.657,370.955 78.657,371.296 78.621 C 371.637 78.585,371.317 78.557,370.583 78.557 C 369.850 78.558,369.571 78.587,369.963 78.622 M368.460 84.618 C 368.668 84.658,368.968 84.656,369.127 84.615 C 369.286 84.573,369.117 84.540,368.750 84.542 C 368.383 84.544,368.253 84.578,368.460 84.618 M371.875 84.615 C 372.035 84.657,372.298 84.657,372.458 84.615 C 372.619 84.573,372.488 84.539,372.167 84.539 C 371.846 84.539,371.715 84.573,371.875 84.615 " stroke="none" fill="#f44ca4" fill-rule="evenodd"></path></g></svg>